<svg width="32" height="32" viewBox="0 0 27 28" fill="none" xmlns="http://www.w3.org/2000/svg">
<path d="M14.8708 0.451172C16.3708 0.455172 17.1321 0.463172 17.7894 0.481839L18.0481 0.491172C18.3468 0.501839 18.6414 0.515172 18.9974 0.531172C20.4161 0.597838 21.3841 0.821839 22.2334 1.15117C23.1134 1.48984 23.8548 1.94851 24.5961 2.68851C25.2744 3.35482 25.799 4.16113 26.1334 5.05117C26.4628 5.90051 26.6868 6.86851 26.7534 8.28851C26.7694 8.64317 26.7828 8.93784 26.7934 9.23784L26.8014 9.49651C26.8214 10.1525 26.8294 10.9138 26.8321 12.4138L26.8334 13.4085V15.1552C26.8367 16.1277 26.8265 17.1002 26.8028 18.0725L26.7948 18.3312C26.7841 18.6312 26.7708 18.9258 26.7548 19.2805C26.6881 20.7005 26.4614 21.6672 26.1334 22.5178C25.799 23.4079 25.2744 24.2142 24.5961 24.8805C23.9298 25.5588 23.1235 26.0834 22.2334 26.4178C21.3841 26.7472 20.4161 26.9712 18.9974 27.0378L18.0481 27.0778L17.7894 27.0858C17.1321 27.1045 16.3708 27.1138 14.8708 27.1165L13.8761 27.1178H12.1308C11.1578 27.1213 10.1848 27.111 9.21211 27.0872L8.95344 27.0792C8.63692 27.0672 8.32047 27.0534 8.00411 27.0378C6.58544 26.9712 5.61744 26.7472 4.76677 26.4178C3.87721 26.0832 3.07136 25.5586 2.40544 24.8805C1.7267 24.2143 1.20159 23.408 0.866774 22.5178C0.537441 21.6685 0.313441 20.7005 0.246774 19.2805L0.206774 18.3312L0.200107 18.0725C0.175529 17.1003 0.164417 16.1277 0.166774 15.1552V12.4138C0.163083 11.4413 0.172862 10.4688 0.196107 9.49651L0.205441 9.23784C0.216107 8.93784 0.229441 8.64317 0.245441 8.28851C0.312107 6.86851 0.536107 5.90184 0.865441 5.05117C1.20103 4.16077 1.72707 3.35442 2.40677 2.68851C3.07231 2.01057 3.87769 1.48594 4.76677 1.15117C5.61744 0.821839 6.58411 0.597838 8.00411 0.531172C8.35877 0.515172 8.65477 0.501839 8.95344 0.491172L9.21211 0.483172C10.1844 0.459482 11.1569 0.449259 12.1294 0.452505L14.8708 0.451172ZM13.5001 7.11784C11.732 7.11784 10.0363 7.82022 8.78606 9.07046C7.53582 10.3207 6.83344 12.0164 6.83344 13.7845C6.83344 15.5526 7.53582 17.2483 8.78606 18.4986C10.0363 19.7488 11.732 20.4512 13.5001 20.4512C15.2682 20.4512 16.9639 19.7488 18.2142 18.4986C19.4644 17.2483 20.1668 15.5526 20.1668 13.7845C20.1668 12.0164 19.4644 10.3207 18.2142 9.07046C16.9639 7.82022 15.2682 7.11784 13.5001 7.11784ZM13.5001 9.78451C14.0254 9.78442 14.5456 9.88779 15.0309 10.0887C15.5162 10.2897 15.9572 10.5842 16.3287 10.9556C16.7002 11.327 16.9949 11.7679 17.196 12.2532C17.3971 12.7384 17.5007 13.2586 17.5008 13.7838C17.5009 14.3091 17.3975 14.8293 17.1965 15.3146C16.9956 15.8 16.701 16.241 16.3297 16.6125C15.9583 16.984 15.5174 17.2787 15.0321 17.4798C14.5469 17.6809 14.0267 17.7844 13.5014 17.7845C12.4406 17.7845 11.4232 17.3631 10.673 16.6129C9.92287 15.8628 9.50144 14.8454 9.50144 13.7845C9.50144 12.7236 9.92287 11.7062 10.673 10.9561C11.4232 10.2059 12.4406 9.78451 13.5014 9.78451M20.5014 5.11784C20.0594 5.11784 19.6355 5.29343 19.3229 5.60599C19.0104 5.91855 18.8348 6.34248 18.8348 6.78451C18.8348 7.22653 19.0104 7.65046 19.3229 7.96302C19.6355 8.27558 20.0594 8.45117 20.5014 8.45117C20.9435 8.45117 21.3674 8.27558 21.68 7.96302C21.9925 7.65046 22.1681 7.22653 22.1681 6.78451C22.1681 6.34248 21.9925 5.91855 21.68 5.60599C21.3674 5.29343 20.9435 5.11784 20.5014 5.11784Z" fill="white"/>
</svg>
