<svg width="189" height="82" viewBox="0 0 189 82" fill="none" xmlns="http://www.w3.org/2000/svg">
<path d="M68.6053 59.76C69.1813 58.608 70.9733 58.864 70.2693 60.848C69.5653 62.832 67.0053 69.808 56.5093 70.064C46.0133 70.32 33.8533 59.248 26.5573 54.896C24.7013 53.808 22.9093 52.848 21.3093 52.08C18.4933 55.792 15.2292 58.16 11.7733 59.696C6.33325 62.064 0.70125 59.568 0.70125 54.704C0.70125 49.264 6.01325 47.088 11.0693 47.024C14.1413 47.024 16.8933 47.28 19.5813 47.92C20.9893 44.976 22.1413 41.648 22.7173 38.512C23.9973 31.92 25.9173 13.872 26.4933 10.288C27.0693 6.704 27.1973 3.952 26.6213 3.632C24.1253 2.16 16.5733 6.128 15.2933 6.96C14.0133 7.792 12.9253 7.152 14.7173 6.064C16.4453 4.912 24.5733 0.815998 28.2213 2.352C29.9493 3.056 31.0373 4.272 30.7173 8.112C30.2053 14.32 29.3093 31.664 27.1973 39.408C26.1733 43.184 24.8293 46.384 23.2933 49.072C25.5333 49.904 27.7733 50.992 30.2053 52.4C36.8613 56.176 48.3813 68.016 56.6373 68.336C64.8933 68.656 68.0293 60.912 68.6053 59.76ZM11.2613 57.904C13.5653 57.072 15.9973 54.32 18.1093 50.736C14.9093 49.52 12.4133 49.072 10.8773 49.072C8.12525 49.072 2.23725 49.968 2.23725 54.704C2.23725 59.312 7.42125 59.248 11.2613 57.904ZM42.1758 22.192C41.1518 22.768 39.6798 22.576 38.9118 21.872C38.1438 21.168 38.2078 20.144 38.4638 19.696C38.6558 19.12 39.4238 18.544 39.9998 18.352C40.3198 18.224 41.2158 18.032 42.2398 18.416C42.7517 18.8 43.3278 19.248 43.3278 20.336C43.3278 21.168 42.6238 21.936 42.1758 22.192ZM39.7438 54.256C35.1358 55.088 32.8957 52.464 33.9198 46.896C34.1758 45.488 34.6878 42.672 35.0078 41.264C35.9038 37.424 36.8638 32.496 37.3758 30.192C37.5038 29.872 37.8878 29.04 38.2078 28.912C39.7438 28.208 41.2798 29.04 41.2798 30.704C41.2798 33.328 40.4478 37.552 39.9358 40.368C39.2958 43.824 38.4638 48.624 38.3998 49.584C38.2718 51.504 39.6158 51.952 40.2558 51.952C41.4718 51.952 42.6238 50.992 44.2238 49.008C45.3118 47.664 47.9998 42.672 49.2798 39.344C49.5358 38.704 49.9198 38.704 50.1118 38.768C50.4958 38.896 50.4958 39.344 50.3678 39.728C50.1118 40.432 49.8558 40.88 49.5358 41.712C47.6158 46.64 44.4158 53.424 39.7438 54.256ZM67.1198 54.32C65.3918 54 63.4718 53.168 62.8958 50.288C62.2558 47.152 62.4478 44.528 64.0478 38.576C64.3678 37.488 65.1358 33.968 65.0078 33.392C65.0078 32.24 64.0478 31.92 63.2158 32.304C61.7438 33.456 60.2078 35.12 59.3118 36.272C57.9038 37.936 55.7917 41.84 54.6398 43.76C53.9998 44.912 53.4238 46.768 52.9758 47.984C52.7838 48.368 52.0798 51.376 51.9518 51.888C51.7598 52.784 51.5038 53.488 50.9918 54.192C50.4798 55.088 48.6238 54.96 47.9838 54.128C47.1517 53.104 47.4078 52.592 47.5358 51.184C47.8558 48.496 48.4958 46.064 48.7518 43.76C49.5838 36.912 49.9038 33.456 50.6078 29.936C50.8638 28.528 51.8878 28.272 52.5278 28.336C54.3838 28.464 54.7678 29.488 54.7678 30.064C54.7678 32.944 54.6398 34.672 54.6398 37.232C54.6398 38.576 55.0238 38.832 55.7278 38.128C57.1358 36.976 58.0958 34.992 59.3758 33.712C61.4238 31.28 62.2558 30.384 65.1358 29.552C66.5438 29.168 67.9518 30.512 68.5918 31.792C69.1678 32.944 68.8478 36.528 68.6558 38.512C68.3358 40.944 67.5038 44.272 67.2478 46.832C66.9918 50.032 67.3118 51.696 68.2718 51.824C70.3198 52.144 72.6878 47.408 73.5198 45.936C74.4158 44.336 75.8878 39.664 76.6558 37.808C76.7838 37.552 77.1678 37.424 77.4238 37.68C77.5518 37.808 77.5518 37.936 77.5518 38.064C77.5518 38.192 77.6798 38.32 77.6158 38.448C77.0398 40.432 76.1438 43.76 75.5678 45.104C74.9278 46.64 73.3278 50.224 72.1758 51.568C71.1518 52.784 68.7198 54.64 67.1198 54.32ZM79.7123 80.496C74.9763 78.32 79.1363 66.8 83.1683 60.912C84.9603 58.288 87.2003 55.728 88.1603 53.872C88.5443 52.72 88.6723 50.8 88.6723 50.096C88.6723 48.368 89.3763 46.384 88.9923 46.128C87.9683 45.424 85.9203 53.808 80.8643 54.768C78.8163 55.152 76.5763 53.872 75.6163 52.08C73.7602 47.344 74.9123 39.472 79.4563 33.264C81.6323 30.256 85.6643 27.696 89.1203 28.208C90.4003 28.336 91.1683 29.488 91.1683 30.832C91.1683 32.048 91.0403 32.752 90.4003 33.84C90.0163 34.224 89.8243 34.224 89.5683 34.224C87.9683 34.224 90.3363 30.192 88.9923 29.936C87.0083 29.296 84.8963 30.32 82.9763 33.072C79.5843 38 78.9443 45.744 79.9043 50.288C80.1603 51.632 81.7603 51.824 82.5923 51.184C84.2563 49.904 87.9683 46.128 89.8243 40.112C90.2723 37.68 90.3363 35.248 91.2963 34.416C92.3203 33.392 93.6003 33.264 93.7283 34.288C94.0483 36.464 93.9203 38.384 93.8563 39.984C93.7923 41.968 93.8563 42.544 93.5363 47.984C93.4722 48.688 93.4722 48.944 94.1123 48.624C96.9283 47.216 99.2323 41.712 100.192 39.472C100.256 39.216 100.704 38.384 101.024 38.512C101.536 38.64 101.6 39.344 101.408 39.856C101.28 40.368 100.576 41.968 100.064 43.056C98.2723 47.088 95.5203 49.584 93.9203 51.504C93.6003 52.4 91.8723 62.576 91.0403 66.736C89.7603 73.264 87.1363 77.936 84.7683 79.6C82.9763 80.88 81.1203 81.136 79.7123 80.496ZM80.0323 78.832C81.7603 79.792 82.9763 78.256 83.8083 76.016C85.3443 71.856 86.8803 66.16 88.0323 60.336C88.6723 57.2 88.6723 56.368 88.2883 56.304C87.8403 56.048 82.6562 64.56 82.4003 65.008C79.8403 69.616 77.7923 77.552 80.0323 78.832ZM116.634 53.744C115.162 53.04 114.65 51.44 114.458 50.352C113.946 47.856 115.418 44.592 115.418 39.216C115.418 39.024 115.418 38.768 115.226 38.704C115.098 38.64 114.842 38.704 114.65 38.96C113.562 40.304 112.474 42.608 111.642 44.016C110.874 45.488 110.49 46.192 109.85 47.536C108.762 49.712 107.802 51.184 106.586 52.272C105.498 53.36 103.898 53.808 103.322 53.936C100.57 54.512 98.9703 52.976 98.9703 51.696C98.9062 46.896 100.25 41.648 101.018 37.744C101.338 36.016 102.298 31.792 103.002 30C103.13 29.616 103.45 28.976 104.346 28.784C105.242 28.592 105.818 28.528 106.33 29.36C106.65 30.192 106.842 31.856 106.778 32.56C106.522 36.336 105.434 41.584 104.858 44.336C104.474 46.384 104.09 49.968 104.538 50.736C104.858 51.056 105.05 51.056 105.37 50.864C106.586 50.224 107.29 49.072 108.57 46.768C109.594 44.848 111.642 41.072 113.178 38.32C113.754 37.296 115.098 33.84 116.634 31.664C117.018 31.088 117.53 30.32 117.85 29.744C118.17 29.168 119.578 29.04 119.962 29.424C120.41 29.808 120.794 30.448 120.794 31.088C120.538 38.192 120.346 40.304 119.578 45.04C119.002 48.816 118.81 50.352 120.154 51.12C123.29 52.912 128.346 42.608 129.626 38.064C129.754 37.488 130.01 37.04 130.394 36.656C130.522 36.592 130.586 36.592 130.778 36.656C131.034 36.656 131.226 36.912 131.226 37.168C131.162 37.872 130.842 38.512 130.65 39.088C130.458 39.6 127.962 46.576 125.85 49.776C123.098 54 119.514 54.96 116.634 53.744ZM151.652 54.896C150.052 54.96 147.748 54.96 145.7 53.744C144.036 53.04 143.268 50.736 143.14 49.072C143.076 48.24 143.012 47.408 143.012 46.64C143.012 45.552 143.076 44.464 143.012 43.376C143.012 43.056 142.82 42.864 142.628 42.864C142.116 42.864 141.796 43.44 141.732 43.568C139.812 47.856 137.764 53.68 133.668 54.448C131.62 54.832 129.38 53.552 128.42 51.76C126.564 47.024 127.716 39.152 132.26 32.944C134.436 29.936 138.468 27.376 141.924 27.888C143.204 28.016 143.972 29.168 143.972 30.512C143.972 31.728 143.844 32.432 143.204 33.52C142.82 33.904 142.628 33.904 142.372 33.904C140.772 33.904 143.14 29.872 141.796 29.616C139.812 28.976 137.7 30 135.78 32.752C132.388 37.68 131.748 45.424 132.708 49.968C132.964 51.312 134.564 51.504 135.396 50.864C137.892 48.944 139.3 45.424 141.54 41.264C142.372 39.856 143.14 38.384 143.844 36.976C144.1 36.528 144.292 36.016 144.548 35.504C144.868 33.52 144.74 32.56 145.7 31.664C146.212 31.152 146.98 31.088 147.428 31.664C147.684 32.176 147.94 32.624 147.94 33.2C148.132 35.76 148.132 38.32 148.132 40.88C148.068 43.696 147.812 46.512 148.324 49.392C148.516 50.352 148.388 53.104 151.46 53.104C153.828 53.104 159.652 51.824 164.964 49.328C168.42 47.728 170.02 46.704 173.732 44.464C176.932 42.544 178.084 41.648 180.516 41.136C183.396 40.56 185.764 41.264 187.172 43.312C187.492 43.76 187.748 44.208 187.94 44.72C188.324 45.616 188.26 46.576 187.748 47.408C187.428 47.856 186.852 48.176 186.404 48.112C185.636 48.048 185.188 47.6 184.996 46.96C184.676 46 184.932 45.04 184.804 44.144C184.612 42.992 182.564 41.968 180.644 42.544C176.228 43.888 175.78 44.656 171.364 47.344L170.02 48.176C166.116 50.224 165.22 50.736 160.548 52.592C157.476 53.808 154.596 54.768 151.652 54.896Z" fill="white"/>
</svg>
